<svg width="7" height="21" viewBox="0 0 7 21" fill="none" xmlns="http://www.w3.org/2000/svg">
<path d="M3.5 0.333344C4.03043 0.333344 4.53914 0.544057 4.91421 0.91913C5.28929 1.2942 5.5 1.80291 5.5 2.33334C5.5 2.86378 5.28929 3.37248 4.91421 3.74756C4.53914 4.12263 4.03043 4.33334 3.5 4.33334C2.96957 4.33334 2.46086 4.12263 2.08579 3.74756C1.71071 3.37248 1.5 2.86378 1.5 2.33334C1.5 1.80291 1.71071 1.2942 2.08579 0.91913C2.46086 0.544057 2.96957 0.333344 3.5 0.333344ZM2 5.33334H5C5.53043 5.33334 6.03914 5.54406 6.41421 5.91913C6.78929 6.2942 7 6.80291 7 7.33334V12.8333H5.5V20.3333H1.5V12.8333H0V7.33334C0 6.80291 0.210714 6.2942 0.585787 5.91913C0.96086 5.54406 1.46957 5.33334 2 5.33334Z" fill="#0085FF"/>
</svg>
