<svg width="24" height="13" viewBox="0 0 24 13" fill="none" xmlns="http://www.w3.org/2000/svg">
<path d="M2.2077e-06 8.145C2.2077e-06 8.385 0.0900024 8.595 0.280002 8.765C0.440002 8.955 0.650003 9.045 0.910003 9.045H15.6C15.89 9.045 16.13 9.145 16.33 9.345C16.53 9.545 16.63 9.795 16.63 10.085C16.63 10.375 16.53 10.615 16.33 10.805C16.13 10.995 15.89 11.095 15.59 11.095C15.3 11.095 15.05 10.995 14.86 10.805C14.7856 10.7197 14.6932 10.6522 14.5894 10.6072C14.4856 10.5622 14.3731 10.541 14.26 10.545C14.01 10.545 13.8 10.635 13.62 10.805C13.44 10.975 13.35 11.185 13.35 11.415C13.35 11.665 13.44 11.875 13.63 12.045C14.19 12.595 14.85 12.875 15.59 12.875C16.37 12.875 17.04 12.605 17.6 12.065C18.16 11.525 18.43 10.875 18.43 10.095C18.43 9.315 18.15 8.655 17.59 8.095C17.03 7.535 16.36 7.255 15.59 7.255H0.910003C0.791458 7.25405 0.673895 7.27653 0.564064 7.32115C0.454233 7.36577 0.354299 7.43165 0.270002 7.515C0.0900022 7.685 2.2077e-06 7.895 2.2077e-06 8.145ZM2.2077e-06 4.865C2.2077e-06 5.095 0.0900024 5.295 0.280002 5.475C0.450002 5.655 0.660003 5.735 0.910003 5.735H20.95C21.73 5.735 22.4 5.465 22.96 4.915C23.52 4.375 23.8 3.715 23.8 2.945C23.8 2.175 23.52 1.505 22.96 0.955C22.4 0.405 21.73 0.125 20.95 0.125C20.18 0.125 19.53 0.395 19 0.925C18.82 1.085 18.73 1.305 18.73 1.595C18.73 1.855 18.82 2.065 18.99 2.225C19.16 2.385 19.37 2.465 19.62 2.465C19.86 2.465 20.07 2.385 20.25 2.225C20.44 2.015 20.67 1.915 20.95 1.915C21.24 1.915 21.48 2.015 21.68 2.215C21.88 2.415 21.98 2.655 21.98 2.945C21.98 3.235 21.88 3.475 21.68 3.665C21.48 3.855 21.24 3.955 20.95 3.955H0.910003C0.790426 3.95474 0.671974 3.97809 0.561449 4.02373C0.450923 4.06937 0.350501 4.13639 0.265947 4.22095C0.181393 4.3055 0.114373 4.40592 0.0687349 4.51645C0.0230966 4.62697 -0.000261469 4.74542 2.2077e-06 4.865Z" fill="#DADADA"/>
</svg>
